<svg
              width="80"
              height="63"
              viewBox="0 0 80 63"
              fill="none"
              xmlns="http://www.w3.org/2000/svg"
            >
              <g clip-path="url(#clip0_62_2)">
                <path
                  d="M46.3228 42.754L46.5827 35.5353L63.2094 44.2699V63.0048C57.6639 60.6419 52.5229 57.4849 47.1507 54.7851C46.2457 54.328 46.4142 53.4761 46.4046 52.6965C46.3757 50.0721 46.3484 47.4493 46.3228 44.8281V42.754Z"
                  fill="#050F2B"
                />
                <path
                  d="M63.2095 63V44.265C68.7116 41.2909 74.1512 38.2061 79.8362 35.5737C79.8876 41.477 79.9422 47.3803 80 53.2836C80.035 53.6005 79.9691 53.9203 79.8118 54.1977C79.6545 54.475 79.4138 54.6957 79.1238 54.8284C73.7998 57.5138 68.6972 60.6274 63.2095 63Z"
                  fill="#2C064C"
                />
                <path
                  d="M15.9433 36.1465C10.9852 33.5606 6.02219 30.9811 1.05438 28.408C0.723726 28.2711 0.444291 28.0341 0.255222 27.7303C0.0661531 27.4264 -0.0230327 27.0711 0.000195803 26.714C0.000195803 20.9391 0.000125289 15.1641 0.048263 9.4132C0.048263 9.13889 0.322709 8.8694 0.471936 8.59509C0.953312 9.41802 1.81974 9.67308 2.58513 10.0773C7.22239 12.5221 11.8646 14.9572 16.5114 17.3827C16.5114 22.9074 16.5402 28.4513 16.5354 33.9568C16.5306 34.746 16.8146 35.593 15.9433 36.1465Z"
                  fill="#050F2B"
                />
                <path
                  d="M79.8364 35.5738C74.1514 38.2062 68.7118 41.291 63.2097 44.2651L46.583 35.5305L50.8047 32.8355C51.8075 32.5566 52.7417 32.0732 53.5485 31.4158C56.3068 30.0154 59.0651 28.6053 61.833 27.2241C62.4395 26.9209 62.9932 26.3531 63.8019 26.8103C69.1018 29.8132 74.7435 32.1906 79.8364 35.5738Z"
                  fill="#610A8A"
                />
                <path
                  d="M16.5112 17.3826C11.8643 14.9539 7.22213 12.5188 2.58487 10.0773C1.81948 9.67305 0.943429 9.418 0.47168 8.59506C5.36728 5.42365 10.7297 3.09441 15.8035 0.240613C16.0783 0.0776519 16.3931 -0.00591501 16.7126 -0.000817584C17.0321 0.00427984 17.3439 0.0978408 17.6134 0.269487C22.7257 3.0543 27.8444 5.82789 32.9694 8.59025C27.7224 11.9734 22.0711 14.5962 16.5112 17.3826Z"
                  fill="#610A8A"
                />
                <path
                  d="M46.3231 42.754V44.8233C41.6537 43.8849 37.8364 41.238 34.178 38.4468C32.3054 37.0031 32.4594 34.4236 34.0191 32.3735C35.7087 30.1597 38.1733 29.2357 40.7246 28.4705C40.9515 28.3891 41.2002 28.393 41.4244 28.4816C41.6485 28.5702 41.8327 28.7373 41.9425 28.9518C42.3324 29.5678 41.7164 29.6496 41.4179 29.9865C40.5225 30.9923 39.1265 31.026 38.1301 31.82C36.7292 32.9413 35.7231 34.1926 36.2815 36.1176C36.4308 36.6325 36.6955 37.3736 37.3887 36.7095C38.7703 35.3861 40.6958 35.0059 42.1448 33.822C44.7105 31.7334 44.6575 29.2694 41.7884 27.6428C39.0398 26.0787 36.4933 24.1008 33.3981 23.1865C31.3022 22.5756 29.0577 22.7274 27.0632 23.6148C25.2484 24.3463 23.5395 25.3809 23.3181 27.5851C23.087 29.871 24.9018 30.6843 26.5385 31.5553C27.6986 32.2435 28.8491 32.9461 30.0188 33.6199C31.7999 34.6498 31.8047 34.6401 31.8529 37.133C28.7432 36.2042 26.3267 34.0915 23.4866 32.8643C17.609 29.4475 20.165 24.6831 24.1123 22.5753C26.9515 21.0933 30.1642 20.479 33.35 20.8091C37.7257 21.7716 41.3119 24.3607 44.9656 26.6996C47.8057 28.5235 47.7528 32.1425 45.1293 34.4958C43.122 36.2956 40.7054 37.2629 37.7594 38.0329L46.3231 42.754Z"
                  fill="#EFCB4B"
                />
                <path
                  d="M33.35 20.8332C30.1642 20.5031 26.9515 21.1173 24.1123 22.5993C20.165 24.6976 17.609 29.4716 23.4866 32.8884C21.4648 34.0097 19.4334 35.1214 17.4212 36.2571C16.8773 36.5651 16.3959 36.7384 15.9434 36.1416C16.7906 35.5882 16.5306 34.6979 16.5354 33.952C16.5354 28.4272 16.5355 22.8833 16.5115 17.3778C22.0714 14.5914 27.7227 11.9686 32.9697 8.58545C33.9325 10.9484 33.2248 13.3979 33.3788 15.8041C33.4847 17.4885 33.3693 19.1632 33.35 20.8332Z"
                  fill="#2C064C"
                />
                <path
                  d="M26.5382 31.5794C24.9015 30.7083 23.0868 29.895 23.3178 27.6091C23.5393 25.405 25.2434 24.3703 27.063 23.6388C29.0575 22.7514 31.302 22.5997 33.3978 23.2105C34.1247 26.7814 32.517 28.8892 29.2243 30.0587C28.2712 30.4148 27.4336 31.0645 26.5382 31.5794Z"
                  fill="#2C064C"
                />
                <path
                  d="M53.5483 31.4158C52.7415 32.0732 51.8073 32.5566 50.8045 32.8355C49.5529 32.0029 47.8488 31.512 48.2243 29.4667L48.2532 29.5052C50.4627 28.9181 51.772 30.7998 53.5483 31.4158Z"
                  fill="#EFCB4B"
                />
                <path
                  d="M48.2245 29.4523L48.2727 29.0962L48.0127 29.2165L48.2534 29.4908L48.2245 29.4523Z"
                  fill="#393636"
                />
              </g>
              <defs>
                <clipPath id="clip0_62_2">
                  <rect width="80" height="63" fill="white" />
                </clipPath>
              </defs>
            </svg>